<svg width="20" height="20" viewBox="0 0 20 20" fill="none" xmlns="http://www.w3.org/2000/svg">
<path d="M15 2.5C15.6631 2.5 16.2989 2.76339 16.7678 3.23223C17.2366 3.70107 17.5 4.33696 17.5 5C17.7041 5.00003 17.9011 5.07496 18.0537 5.2106C18.2062 5.34623 18.3036 5.53312 18.3275 5.73583L18.3334 5.83333V7.5C18.3333 7.70411 18.2584 7.90111 18.1228 8.05364C17.9871 8.20617 17.8002 8.30362 17.5975 8.3275L17.5 8.33333V14.1667C17.5 14.7358 17.2142 15.2392 16.7784 15.5392L16.6667 15.61V16.25C16.6665 16.571 16.5429 16.8797 16.3213 17.112C16.0998 17.3443 15.7974 17.4825 15.4768 17.4979C15.1561 17.5134 14.8418 17.4048 14.599 17.1949C14.3562 16.9849 14.2035 16.6895 14.1725 16.37L14.1667 16.25V15.8333H5.83335V16.25C5.83319 16.571 5.70954 16.8797 5.48801 17.112C5.26649 17.3443 4.96407 17.4825 4.64342 17.4979C4.32278 17.5134 4.00849 17.4048 3.76569 17.1949C3.52288 16.9849 3.37016 16.6895 3.33919 16.37L3.33335 16.25V15.61C3.10065 15.4757 2.90387 15.2871 2.75978 15.0603C2.61569 14.8335 2.52858 14.5752 2.50585 14.3075L2.50002 14.1667V8.33333C2.29591 8.33331 2.09891 8.25837 1.94638 8.12274C1.79385 7.9871 1.6964 7.80021 1.67252 7.5975L1.66669 7.5V5.83333C1.66669 5.61232 1.75448 5.40036 1.91076 5.24408C2.06704 5.0878 2.27901 5 2.50002 5C2.49998 4.36232 2.74362 3.74874 3.18109 3.28478C3.61856 2.82083 4.21678 2.54158 4.85335 2.50417L5.00002 2.5H15ZM15.8334 10.8333H4.16669V14.1667H15.8334V10.8333ZM6.66669 11.6667C6.8877 11.6667 7.09966 11.7545 7.25594 11.9107C7.41222 12.067 7.50002 12.279 7.50002 12.5C7.50002 12.721 7.41222 12.933 7.25594 13.0893C7.09966 13.2455 6.8877 13.3333 6.66669 13.3333H5.83335C5.61234 13.3333 5.40038 13.2455 5.2441 13.0893C5.08782 12.933 5.00002 12.721 5.00002 12.5C5.00002 12.279 5.08782 12.067 5.2441 11.9107C5.40038 11.7545 5.61234 11.6667 5.83335 11.6667H6.66669ZM14.1667 11.6667C14.3791 11.6669 14.5834 11.7482 14.7378 11.894C14.8923 12.0398 14.9852 12.2391 14.9977 12.4512C15.0101 12.6632 14.9411 12.872 14.8048 13.0349C14.6685 13.1977 14.4751 13.3024 14.2642 13.3275L14.1667 13.3333H13.3334C13.121 13.3331 12.9167 13.2518 12.7622 13.106C12.6078 12.9602 12.5148 12.7609 12.5024 12.5488C12.4899 12.3368 12.5589 12.128 12.6952 11.9651C12.8316 11.8023 13.0249 11.6976 13.2359 11.6725L13.3334 11.6667H14.1667ZM7.81835 4.16667H5.00002C4.77901 4.16667 4.56705 4.25446 4.41076 4.41074C4.25448 4.56702 4.16669 4.77899 4.16669 5V9.16667H15.8334V5C15.8334 4.77899 15.7456 4.56702 15.5893 4.41074C15.433 4.25446 15.221 4.16667 15 4.16667H13.8484L12.4117 7.03917C12.3649 7.14048 12.2982 7.23136 12.2156 7.30642C12.133 7.38148 12.0362 7.43918 11.9309 7.4761C11.8256 7.51303 11.7139 7.52842 11.6025 7.52137C11.4911 7.51432 11.3823 7.48497 11.2825 7.43506C11.1827 7.38515 11.0939 7.31569 11.0214 7.23082C10.949 7.14595 10.8943 7.04738 10.8606 6.94098C10.827 6.83457 10.815 6.72248 10.8255 6.61138C10.836 6.50027 10.8687 6.3924 10.9217 6.29417L11.985 4.16667H9.68169L8.24502 7.03917C8.14223 7.22977 7.96929 7.37288 7.76281 7.43818C7.55634 7.50348 7.33255 7.48584 7.13886 7.38899C6.94517 7.29214 6.79678 7.1237 6.72513 6.91934C6.65349 6.71498 6.66421 6.49076 6.75502 6.29417L7.81835 4.16667Z" fill="#336749"/>
</svg>
