<svg width="20" height="20" viewBox="0 0 20 20" fill="none" xmlns="http://www.w3.org/2000/svg">
<g clip-path="url(#clip0_1_127)">
<path d="M1.66669 17.5C2.16669 17.9167 2.66669 18.3333 3.75002 18.3333C5.83335 18.3333 5.83335 16.6667 7.91669 16.6667C9.00002 16.6667 9.50002 17.0833 10 17.5C10.5 17.9167 11 18.3333 12.0834 18.3333C14.1667 18.3333 14.1667 16.6667 16.25 16.6667C17.3334 16.6667 17.8334 17.0833 18.3334 17.5" stroke="#336749" stroke-width="2" stroke-linecap="round" stroke-linejoin="round"/>
<path d="M16.15 16.6667C17.0464 15.1538 17.5132 13.4251 17.5 11.6667L10 8.33334L2.5 11.6667C2.5 14.0833 3.28333 16.1167 4.84167 18.1333" stroke="#336749" stroke-width="2" stroke-linecap="round" stroke-linejoin="round"/>
<path d="M15.8334 10.8333V5.83333C15.8334 5.39131 15.6578 4.96738 15.3452 4.65482C15.0326 4.34226 14.6087 4.16667 14.1667 4.16667H5.83335C5.39133 4.16667 4.9674 4.34226 4.65484 4.65482C4.34228 4.96738 4.16669 5.39131 4.16669 5.83333V10.8333M10 8.33333V11.6667M10 1.66667V4.16667" stroke="#336749" stroke-width="2" stroke-linecap="round" stroke-linejoin="round"/>
</g>
<defs>
<clipPath id="clip0_1_127">
<rect width="20" height="20" fill="white"/>
</clipPath>
</defs>
</svg>
