<svg width="20" height="20" viewBox="0 0 20 20" fill="none" xmlns="http://www.w3.org/2000/svg">
<path d="M1.66669 2.5H5.61085C7.78585 2.5 8.87419 2.5 9.89002 2.83417C10.9059 3.16833 11.7809 3.815 13.5317 5.1075L16.6067 7.37917L16.6734 7.42917C17.1945 7.8216 17.6162 8.33091 17.9045 8.9161C18.1928 9.50129 18.3397 10.146 18.3334 10.7983V10.8592C18.3267 11.2921 18.1518 11.7055 17.8457 12.0118C17.5396 12.318 17.1263 12.4931 16.6934 12.5H1.66669" stroke="#336749" stroke-width="1.5" stroke-linecap="round" stroke-linejoin="round"/>
<path d="M1.66669 6.66667H3.24419C3.46919 6.66667 3.58169 6.66667 3.68835 6.67333C4.13976 6.7024 4.58053 6.82304 4.98382 7.02791C5.38712 7.23278 5.74449 7.51759 6.03419 7.865C6.10252 7.94667 6.16919 8.03667 6.30085 8.21833C6.55451 8.53402 6.68456 8.93126 6.66669 9.33583V9.51333C6.66752 9.65583 6.66752 9.7275 6.64585 9.785C6.62913 9.82906 6.60325 9.86907 6.56992 9.9024C6.5366 9.93573 6.49658 9.96161 6.45252 9.97833C6.39419 10 6.32252 10 6.18002 10H1.66669M17.5 9.16667H14.4442C11.99 9.16667 10 7.30083 10 5V3.33333M1.66669 15.8333H18.3334M15 15.8333V17.5M10 15.8333V17.5M5.00002 15.8333V17.5" stroke="#336749" stroke-width="1.5" stroke-linecap="round" stroke-linejoin="round"/>
</svg>
